<?xml version="1.0" encoding="UTF-8" standalone="no"?>
<svg
   width="40.126591mm"
   height="11.972444mm"
   viewBox="0 0 40.126591 11.972444"
   version="1.1"
   id="svg8"
   inkscape:version="1.2.2 (b0a8486541, 2022-12-01)"
   sodipodi:docname="termin-light-full.svg"
   inkscape:export-filename="/home/brunnels/Marketing/newlogo-uccs-monochrome-light.png"
   inkscape:export-xdpi="507.32999"
   inkscape:export-ydpi="507.32999"
   xmlns:inkscape="http://www.inkscape.org/namespaces/inkscape"
   xmlns:sodipodi="http://sodipodi.sourceforge.net/DTD/sodipodi-0.dtd"
   xmlns="http://www.w3.org/2000/svg"
   xmlns:svg="http://www.w3.org/2000/svg"
   xmlns:rdf="http://www.w3.org/1999/02/22-rdf-syntax-ns#"
   xmlns:cc="http://creativecommons.org/ns#"
   xmlns:dc="http://purl.org/dc/elements/1.1/">
  <defs
     id="defs2">
    <clipPath
       clipPathUnits="userSpaceOnUse"
       id="clipPath4745">
      <path
         style="fill:#b3b3b3;stroke:#000000;stroke-width:0.264583px;stroke-linecap:butt;stroke-linejoin:miter;stroke-opacity:1"
         d="m -430.57122,-137.31298 113.58957,-29.66692 125.08213,24.5888 L -205.53026,1.1326329 -298.27278,74.899023 -416.13865,9.952527 Z"
         id="path4747"
         inkscape:connector-curvature="0" />
    </clipPath>
    <clipPath
       clipPathUnits="userSpaceOnUse"
       id="clipPath1318">
      <rect
         style="fill:#000000;fill-opacity:0.806492;stroke:#000000;stroke-width:0.289367;stroke-miterlimit:4;stroke-dasharray:none;stroke-opacity:1"
         id="rect1320"
         width="252.14679"
         height="45.889984"
         x="347.55673"
         y="154.07501"
         inkscape:export-xdpi="132.86"
         inkscape:export-ydpi="132.86" />
    </clipPath>
    <clipPath
       clipPathUnits="userSpaceOnUse"
       id="clipPath1322">
      <g
         id="g1342"
         style="stroke-width:0.999999">
        <path
           style="fill:#175784;fill-opacity:1;stroke:none;stroke-width:0.264584px;stroke-linecap:butt;stroke-linejoin:miter;stroke-opacity:1"
           d="m 355.73475,164.91974 3.25613,1.68032 12.10162,-2.49685 9.26506,3.39075 6.31561,-1.59889 -13.74296,-3.92919 z"
           id="path1324" />
        <path
           style="fill:#1f77b4;fill-opacity:1;stroke:none;stroke-width:0.264584px;stroke-linecap:butt;stroke-linejoin:miter;stroke-opacity:1"
           d="m 355.24327,165.24345 3.52435,1.82354 1.12382,13.4165 7.60808,6.13751 0.3199,7.54152 -10.30069,-10.10323 z"
           id="path1326" />
        <path
           style="fill:#1f77b4;fill-opacity:1;stroke:none;stroke-width:0.264584px;stroke-linecap:butt;stroke-linejoin:miter;stroke-opacity:1"
           d="m 359.30274,167.34768 3.04388,1.57844 0.51959,7.60129 4.32492,2.89313 0.27606,6.50883 -7.08017,-5.71551 z"
           id="path1328" />
        <path
           style="fill:#175784;fill-opacity:1;stroke:none;stroke-width:0.264584px;stroke-linecap:butt;stroke-linejoin:miter;stroke-opacity:1"
           d="m 359.70476,166.9706 11.30289,-2.33772 8.4633,3.07113 -5.12098,1.29138 -4.88303,-2.16729 -6.85846,1.65234 z"
           id="path1330" />
        <path
           style="fill:#4ea5e1;fill-opacity:1;stroke:none;stroke-width:0.264584px;stroke-linecap:butt;stroke-linejoin:miter;stroke-opacity:1"
           d="m 374.53862,169.48201 5.67869,-1.42766 -0.84609,13.30591 -11.38863,4.56518 -0.28572,-6.58904 6.83566,-2.33592 z"
           id="path1332" />
        <path
           style="fill:#4ea5e1;fill-opacity:1;stroke:none;stroke-width:0.264584px;stroke-linecap:butt;stroke-linejoin:miter;stroke-opacity:1"
           d="m 380.73958,167.92967 6.6416,-1.68279 -2.07716,20.10762 -16.95435,8.05075 -0.34561,-7.93436 11.86428,-4.75705 z"
           id="path1334" />
        <path
           style="fill:#ff7f0e;fill-opacity:1;stroke:none;stroke-width:0.264584px;stroke-linecap:butt;stroke-linejoin:miter;stroke-opacity:1"
           d="m 362.87872,169.20544 3.9632,2.04979 0.3193,7.5268 -3.80246,-2.55246 z"
           id="path1336" />
        <path
           style="fill:#bd5900;fill-opacity:1;stroke:none;stroke-width:0.264584px;stroke-linecap:butt;stroke-linejoin:miter;stroke-opacity:1"
           d="m 363.30291,168.84243 6.12266,-1.46744 4.1182,1.82182 -6.42551,1.62329 z"
           id="path1338" />
        <path
           style="fill:#ffa759;fill-opacity:1;stroke:none;stroke-width:0.264584px;stroke-linecap:butt;stroke-linejoin:miter;stroke-opacity:1"
           d="m 367.35686,171.29049 6.66775,-1.67235 -0.007,7.01026 -6.33802,2.17169 z"
           id="path1340" />
      </g>
    </clipPath>
  </defs>
  <sodipodi:namedview
     id="base"
     pagecolor="#ffffff"
     bordercolor="#666666"
     borderopacity="1.0"
     inkscape:pageopacity="0.0"
     inkscape:pageshadow="2"
     inkscape:zoom="2.8284272"
     inkscape:cx="121.79914"
     inkscape:cy="60.457629"
     inkscape:document-units="mm"
     inkscape:current-layer="layer1"
     inkscape:document-rotation="0"
     showgrid="false"
     inkscape:window-width="1920"
     inkscape:window-height="997"
     inkscape:window-x="1920"
     inkscape:window-y="25"
     inkscape:window-maximized="1"
     showguides="true"
     inkscape:guide-bbox="true"
     inkscape:pagecheckerboard="0"
     inkscape:showpageshadow="2"
     inkscape:deskcolor="#d1d1d1">
    <sodipodi:guide
       position="-253.26071,81.309002"
       orientation="0,-1"
       id="guide1753"
       inkscape:locked="false" />
  </sodipodi:namedview>
  <metadata
     id="metadata5">
    <rdf:RDF>
      <cc:Work
         rdf:about="">
        <dc:format>image/svg+xml</dc:format>
        <dc:type
           rdf:resource="http://purl.org/dc/dcmitype/StillImage" />
      </cc:Work>
    </rdf:RDF>
  </metadata>
  <g
     inkscape:label="Layer 1"
     inkscape:groupmode="layer"
     id="layer1"
     transform="translate(-29.549753,-77.115097)">
    <text
       xml:space="preserve"
       style="font-style:normal;font-weight:normal;font-size:4.89457px;line-height:1.25;font-family:sans-serif;letter-spacing:2.84427px;word-spacing:0px;fill:#ffffff;fill-opacity:1;stroke:none;stroke-width:0.284754"
       x="157.8017"
       y="174.57796"
       id="text1785"
       transform="scale(0.99418263,1.0058514)"><tspan
         sodipodi:role="line"
         id="tspan1783"
         x="0"
         y="0"
         style="font-style:normal;font-variant:normal;font-weight:bold;font-stretch:normal;font-size:4.89457px;font-family:'Open Sans';-inkscape-font-specification:'Open Sans, Bold';font-variant-ligatures:normal;font-variant-caps:normal;font-variant-numeric:normal;font-variant-east-asian:normal;fill:#ffffff;stroke-width:0.284754"><tspan
           style="font-style:normal;font-variant:normal;font-weight:bold;font-stretch:normal;font-size:4.89457px;font-family:'Open Sans';-inkscape-font-specification:'Open Sans, Bold';font-variant-ligatures:normal;font-variant-caps:normal;font-variant-numeric:normal;font-variant-east-asian:normal;fill:#1f77b4;fill-opacity:1;stroke-width:0.284754"
           id="tspan1781" /></tspan></text>
    <text
       xml:space="preserve"
       style="font-style:normal;font-weight:normal;font-size:4.89457px;line-height:1.25;font-family:sans-serif;letter-spacing:0.756708px;word-spacing:0px;fill:#ffffff;fill-opacity:1;stroke:none;stroke-width:0.284754"
       x="117.18274"
       y="73.366585"
       id="text1965"
       transform="scale(0.99418263,1.0058514)"><tspan
         sodipodi:role="line"
         id="tspan1963"
         x="0"
         y="0"
         style="font-style:normal;font-variant:normal;font-weight:bold;font-stretch:normal;font-size:4.89457px;font-family:'Open Sans';-inkscape-font-specification:'Open Sans, Bold';font-variant-ligatures:normal;font-variant-caps:normal;font-variant-numeric:normal;font-variant-east-asian:normal;fill:#1f77b4;fill-opacity:1;stroke-width:0.284754"><tspan
           style="font-style:normal;font-variant:normal;font-weight:bold;font-stretch:normal;font-size:4.89457px;font-family:'Open Sans';-inkscape-font-specification:'Open Sans, Bold';font-variant-ligatures:normal;font-variant-caps:normal;font-variant-numeric:normal;font-variant-east-asian:normal;fill:#1f77b4;fill-opacity:1;stroke-width:0.284754"
           id="tspan1961" /></tspan></text>
    <g
       id="g10878"
       transform="translate(427.59562,41.539583)"
       inkscape:export-xdpi="507.32999"
       inkscape:export-ydpi="507.32999" />
    <rect
       style="fill:#000000;fill-opacity:1;stroke:none;stroke-width:0.365536;stroke-miterlimit:4;stroke-dasharray:none;stroke-opacity:1"
       id="rect1477"
       width="40.126591"
       height="11.972444"
       x="29.549753"
       y="91.274925"
       inkscape:export-xdpi="440.01001"
       inkscape:export-ydpi="440.01001" />
    <g
       aria-label="TERMIN"
       transform="scale(0.99418264,1.0058514)"
       id="text1481"
       style="font-size:8.40504px;line-height:1.25;letter-spacing:0.509849px;word-spacing:0px;fill:#ffffff;stroke-width:0.284755">
      <path
         d="M 35.157834,99.662872 H 33.885586 V 94.721628 H 32.256289 V 93.66279 h 4.530842 v 1.058838 h -1.629297 z"
         style="font-weight:bold;font-family:'Open Sans';-inkscape-font-specification:'Open Sans, Normal'"
         id="path894" />
      <path
         d="M 41.675973,99.662872 H 38.220385 V 93.66279 h 3.455588 v 1.042422 h -2.183341 v 1.317392 h 2.031492 v 1.042422 h -2.031492 v 1.547216 h 2.183341 z"
         style="font-weight:bold;font-family:'Open Sans';-inkscape-font-specification:'Open Sans, Normal'"
         id="path896" />
      <path
         d="m 44.709796,96.326301 h 0.410402 q 0.603292,0 0.890573,-0.201097 0.287282,-0.201097 0.287282,-0.632019 0,-0.426819 -0.29549,-0.607396 -0.291385,-0.180577 -0.906989,-0.180577 h -0.385778 z m 0,1.034214 v 2.302357 H 43.437549 V 93.66279 h 1.748314 q 1.222999,0 1.809874,0.447339 0.586875,0.443234 0.586875,1.350223 0,0.529419 -0.291385,0.943926 -0.291386,0.410402 -0.824909,0.644331 1.354328,2.023284 1.76473,2.614263 H 46.819264 L 45.38696,97.360515 Z"
         style="font-weight:bold;font-family:'Open Sans';-inkscape-font-specification:'Open Sans, Normal'"
         id="path898" />
      <path
         d="m 52.036429,99.662872 -1.444616,-4.707314 h -0.03694 q 0.07798,1.436408 0.07798,1.916578 v 2.790736 H 49.496038 V 93.66279 h 1.731898 l 1.419992,4.588298 h 0.02462 l 1.506177,-4.588298 h 1.731898 v 6.000082 H 54.72456 v -2.839984 q 0,-0.201097 0.0041,-0.463754 0.0082,-0.262658 0.05746,-1.395368 h -0.03694 l -1.547217,4.699106 z"
         style="font-weight:bold;font-family:'Open Sans';-inkscape-font-specification:'Open Sans, Normal'"
         id="path900" />
      <path
         d="M 57.930756,99.662872 V 93.66279 h 1.272247 v 6.000082 z"
         style="font-weight:bold;font-family:'Open Sans';-inkscape-font-specification:'Open Sans, Normal'"
         id="path902" />
      <path
         d="m 66.546051,99.662872 h -1.616985 l -2.610159,-4.539049 h -0.03694 q 0.07798,1.202478 0.07798,1.715481 v 2.823568 H 61.223133 V 93.66279 h 1.604673 l 2.606055,4.493906 h 0.02873 q -0.06156,-1.169647 -0.06156,-1.653922 V 93.66279 h 1.145022 z"
         style="font-weight:bold;font-family:'Open Sans';-inkscape-font-specification:'Open Sans, Normal'"
         id="path904" />
    </g>
    <rect
       style="fill:#ff7f0e;fill-opacity:1;stroke:none;stroke-width:0.491214;stroke-linecap:round;stroke-linejoin:round;stroke-miterlimit:3.5;paint-order:stroke fill markers"
       id="rect1535"
       width="1.626892"
       height="1.0661453"
       x="32.060482"
       y="94.210297" />
    <rect
       style="fill:#1f77b4;fill-opacity:1;stroke:none;stroke-width:0.496014;stroke-linecap:round;stroke-linejoin:round;stroke-miterlimit:3.5;paint-order:stroke fill markers"
       id="rect1587"
       width="1.6603231"
       height="1.0651944"
       x="34.953262"
       y="94.21067" />
    <g
       aria-label="TERMIN"
       transform="matrix(0.99418264,0,0,1.0058514,0,-14.159831)"
       id="g968"
       style="font-size:8.40504px;line-height:1.25;letter-spacing:0.509849px;word-spacing:0px;fill:#000000;stroke-width:0.284755">
      <path
         d="M 35.157834,99.662872 H 33.885586 V 94.721628 H 32.256289 V 93.66279 h 4.530842 v 1.058838 h -1.629297 z"
         style="font-weight:bold;font-family:'Open Sans';-inkscape-font-specification:'Open Sans, Normal';fill:#000000"
         id="path956" />
      <path
         d="M 41.675973,99.662872 H 38.220385 V 93.66279 h 3.455588 v 1.042422 h -2.183341 v 1.317392 h 2.031492 v 1.042422 h -2.031492 v 1.547216 h 2.183341 z"
         style="font-weight:bold;font-family:'Open Sans';-inkscape-font-specification:'Open Sans, Normal';fill:#000000"
         id="path958" />
      <path
         d="m 44.709796,96.326301 h 0.410402 q 0.603292,0 0.890573,-0.201097 0.287282,-0.201097 0.287282,-0.632019 0,-0.426819 -0.29549,-0.607396 -0.291385,-0.180577 -0.906989,-0.180577 h -0.385778 z m 0,1.034214 v 2.302357 H 43.437549 V 93.66279 h 1.748314 q 1.222999,0 1.809874,0.447339 0.586875,0.443234 0.586875,1.350223 0,0.529419 -0.291385,0.943926 -0.291386,0.410402 -0.824909,0.644331 1.354328,2.023284 1.76473,2.614263 H 46.819264 L 45.38696,97.360515 Z"
         style="font-weight:bold;font-family:'Open Sans';-inkscape-font-specification:'Open Sans, Normal';fill:#000000"
         id="path960" />
      <path
         d="m 52.036429,99.662872 -1.444616,-4.707314 h -0.03694 q 0.07798,1.436408 0.07798,1.916578 v 2.790736 H 49.496038 V 93.66279 h 1.731898 l 1.419992,4.588298 h 0.02462 l 1.506177,-4.588298 h 1.731898 v 6.000082 H 54.72456 v -2.839984 q 0,-0.201097 0.0041,-0.463754 0.0082,-0.262658 0.05746,-1.395368 h -0.03694 l -1.547217,4.699106 z"
         style="font-weight:bold;font-family:'Open Sans';-inkscape-font-specification:'Open Sans, Normal';fill:#000000"
         id="path962" />
      <path
         d="M 57.930756,99.662872 V 93.66279 h 1.272247 v 6.000082 z"
         style="font-weight:bold;font-family:'Open Sans';-inkscape-font-specification:'Open Sans, Normal';fill:#000000"
         id="path964" />
      <path
         d="m 66.546051,99.662872 h -1.616985 l -2.610159,-4.539049 h -0.03694 q 0.07798,1.202478 0.07798,1.715481 v 2.823568 H 61.223133 V 93.66279 h 1.604673 l 2.606055,4.493906 h 0.02873 q -0.06156,-1.169647 -0.06156,-1.653922 V 93.66279 h 1.145022 z"
         style="font-weight:bold;font-family:'Open Sans';-inkscape-font-specification:'Open Sans, Normal';fill:#000000"
         id="path966" />
    </g>
    <rect
       style="fill:#ff7f0e;fill-opacity:1;stroke:none;stroke-width:0.491214;stroke-linecap:round;stroke-linejoin:round;stroke-miterlimit:3.5;paint-order:stroke fill markers"
       id="rect970"
       width="1.626892"
       height="1.0661453"
       x="32.060482"
       y="80.050468" />
    <rect
       style="fill:#1f77b4;fill-opacity:1;stroke:none;stroke-width:0.496014;stroke-linecap:round;stroke-linejoin:round;stroke-miterlimit:3.5;paint-order:stroke fill markers"
       id="rect972"
       width="1.6603231"
       height="1.0651944"
       x="34.953262"
       y="80.050842" />
    <rect
       style="fill:#ffffff;fill-opacity:1;stroke:none;stroke-width:0.365536;stroke-miterlimit:4;stroke-dasharray:none;stroke-opacity:1"
       id="rect994"
       width="8.2658377"
       height="8.2658377"
       x="80.432503"
       y="79.493217"
       inkscape:export-xdpi="440.01001"
       inkscape:export-ydpi="440.01001" />
    <g
       aria-label="TERMIN"
       transform="matrix(0.99418264,0,0,1.0058514,50.216669,-13.38018)"
       id="g998"
       style="font-size:8.40504px;line-height:1.25;letter-spacing:0.509849px;word-spacing:0px;fill:#000000;stroke-width:0.284755">
      <path
         d="M 35.157834,99.662872 H 33.885586 V 94.721628 H 32.256289 V 93.66279 h 4.530842 v 1.058838 h -1.629297 z"
         style="font-weight:bold;font-family:'Open Sans';-inkscape-font-specification:'Open Sans, Normal';fill:#000000"
         id="path996" />
    </g>
    <rect
       style="fill:#ff7f0e;fill-opacity:1;stroke:none;stroke-width:0.491214;stroke-linecap:round;stroke-linejoin:round;stroke-miterlimit:3.5;paint-order:stroke fill markers"
       id="rect1000"
       width="1.626892"
       height="1.0661453"
       x="82.277153"
       y="80.830116" />
    <rect
       style="fill:#1f77b4;fill-opacity:1;stroke:none;stroke-width:0.496014;stroke-linecap:round;stroke-linejoin:round;stroke-miterlimit:3.5;paint-order:stroke fill markers"
       id="rect1002"
       width="1.6603231"
       height="1.0651944"
       x="85.16993"
       y="80.83049" />
    <rect
       style="fill:#000000;fill-opacity:1;stroke:none;stroke-width:0.365536;stroke-miterlimit:4;stroke-dasharray:none;stroke-opacity:1"
       id="rect1558"
       width="8.2658377"
       height="8.2658377"
       x="80.432503"
       y="93.286072"
       inkscape:export-xdpi="440.01001"
       inkscape:export-ydpi="440.01001" />
    <g
       aria-label="TERMIN"
       transform="matrix(0.99418264,0,0,1.0058514,50.216669,0.41267765)"
       id="g1562"
       style="font-size:8.40504px;line-height:1.25;letter-spacing:0.509849px;word-spacing:0px;fill:#ffffff;stroke-width:0.284755">
      <path
         d="M 35.157834,99.662872 H 33.885586 V 94.721628 H 32.256289 V 93.66279 h 4.530842 v 1.058838 h -1.629297 z"
         style="font-weight:bold;font-family:'Open Sans';-inkscape-font-specification:'Open Sans, Normal';fill:#ffffff"
         id="path1560" />
    </g>
    <rect
       style="fill:#ff7f0e;fill-opacity:1;stroke:none;stroke-width:0.491214;stroke-linecap:round;stroke-linejoin:round;stroke-miterlimit:3.5;paint-order:stroke fill markers"
       id="rect1564"
       width="1.626892"
       height="1.0661453"
       x="82.277153"
       y="94.622971" />
    <rect
       style="fill:#1f77b4;fill-opacity:1;stroke:none;stroke-width:0.496014;stroke-linecap:round;stroke-linejoin:round;stroke-miterlimit:3.5;paint-order:stroke fill markers"
       id="rect1566"
       width="1.6603231"
       height="1.0651944"
       x="85.16993"
       y="94.623344" />
  </g>
</svg>
