<?xml version="1.0" encoding="UTF-8" standalone="no"?>
<svg
   viewBox="0 0 24 24"
   fill="currentColor"
   version="1.1"
   id="svg10"
   sodipodi:docname="share-people-filled.svg"
   inkscape:version="1.2.2 (b0a8486541, 2022-12-01)"
   xmlns:inkscape="http://www.inkscape.org/namespaces/inkscape"
   xmlns:sodipodi="http://sodipodi.sourceforge.net/DTD/sodipodi-0.dtd"
   xmlns="http://www.w3.org/2000/svg"
   xmlns:svg="http://www.w3.org/2000/svg">
  <defs
     id="defs14" />
  <sodipodi:namedview
     id="namedview12"
     pagecolor="#ffffff"
     bordercolor="#666666"
     borderopacity="1.0"
     inkscape:showpageshadow="2"
     inkscape:pageopacity="0.0"
     inkscape:pagecheckerboard="0"
     inkscape:deskcolor="#d1d1d1"
     showgrid="false"
     inkscape:zoom="27.812867"
     inkscape:cx="9.2583049"
     inkscape:cy="13.464991"
     inkscape:window-width="1593"
     inkscape:window-height="897"
     inkscape:window-x="1092"
     inkscape:window-y="180"
     inkscape:window-maximized="0"
     inkscape:current-layer="svg10" />
  <path
     id="circle2"
     d="M 9 4.75 A 3.25 3.25 0 0 0 5.75 8 A 3.25 3.25 0 0 0 9 11.25 A 3.25 3.25 0 0 0 12.25 8 A 3.25 3.25 0 0 0 9 4.75 z M 9 5.6484375 A 2.3519919 2.3519919 0 0 1 11.351562 8 A 2.3519919 2.3519919 0 0 1 9 10.351562 A 2.3519919 2.3519919 0 0 1 6.6484375 8 A 2.3519919 2.3519919 0 0 1 9 5.6484375 z " />
  <path
     id="circle4"
     d="M 16.5 6.5 A 2.5 2.5 0 0 0 14 9 A 2.5 2.5 0 0 0 16.5 11.5 A 2.5 2.5 0 0 0 19 9 A 2.5 2.5 0 0 0 16.5 6.5 z M 16.5 7.2734375 A 1.7273228 1.7273228 0 0 1 18.226562 9 A 1.7273228 1.7273228 0 0 1 16.5 10.726562 A 1.7273228 1.7273228 0 0 1 14.773438 9 A 1.7273228 1.7273228 0 0 1 16.5 7.2734375 z " />
  <path
     id="path6"
     d="M 9 12.25 C 6.4200026 12.25 3.75 14.420003 3.75 17.25 L 3.75 18.5 L 14.25 18.5 L 14.25 17.25 C 14.25 14.420003 11.579997 12.25 9 12.25 z M 8.8417969 13.263672 C 10.887403 13.263672 13.003906 14.868707 13.003906 16.960938 L 13.003906 17.884766 L 4.6777344 17.884766 L 4.6777344 16.960938 C 4.6777344 14.868707 6.7961902 13.263672 8.8417969 13.263672 z " />
  <path
     id="path8"
     d="M 17.390625 13.800781 C 15.110627 13.800781 13.36 15.630002 13.25 17.75 L 13.25 18.5 L 21.25 18.5 L 21.25 15.550781 C 20.360001 14.460782 18.990623 13.800781 17.390625 13.800781 z M 17.474609 14.591797 C 18.711372 14.591797 19.769082 15.056773 20.457031 15.822266 L 20.457031 17.892578 L 14.273438 17.892578 L 14.273438 17.367188 C 14.358467 15.87834 15.712221 14.591797 17.474609 14.591797 z " />
</svg>
