<svg xmlns="http://www.w3.org/2000/svg" width="512" height="512" viewBox="0 0 512 512">
  <defs>
    <linearGradient id="bg" x1="0%" x2="100%" y1="0%" y2="100%">
      <stop offset="0%" stop-color="#0b1220"/>
      <stop offset="100%" stop-color="#111827"/>
    </linearGradient>
    <linearGradient id="blue" x1="0%" x2="100%" y1="0%" y2="100%">
      <stop offset="0%" stop-color="#4ea5e1"/>
      <stop offset="100%" stop-color="#1f77b4"/>
    </linearGradient>
    <linearGradient id="orange" x1="0%" x2="100%" y1="0%" y2="100%">
      <stop offset="0%" stop-color="#ffa759"/>
      <stop offset="100%" stop-color="#ff7f0e"/>
    </linearGradient>
  </defs>
  <rect width="512" height="512" rx="112" fill="url(#bg)"/>
  <g transform="translate(88 86)">
    <path d="M0 56 160 20l176 46-184 56z" fill="#175784"/>
    <path d="M0 56 76 96l12 152 98 86-18-166z" fill="#1f77b4"/>
    <path d="m161 75 97-24 76 31-95 25z" fill="url(#blue)"/>
    <path d="m258 110 78-22-28 178-117 52 3-124z" fill="#4ea5e1"/>
    <path d="m112 102 56-14 56 26-58 18z" fill="#bd5900"/>
    <path d="m111 116 56 28 0 78-53-34z" fill="#ff7f0e"/>
    <path d="m168 144 58-18-1 73-56 20z" fill="url(#orange)"/>
  </g>
  <path d="M140 408h232" stroke="#e5eef9" stroke-width="24" stroke-linecap="round" opacity=".92"/>
</svg>
